<?xml version="1.0" standalone="no"?>
<!DOCTYPE svg PUBLIC "-//W3C//DTD SVG 20010904//EN"
 "http://www.w3.org/TR/2001/REC-SVG-20010904/DTD/svg10.dtd">
<svg version="1.0" xmlns="http://www.w3.org/2000/svg"
 width="512pt" height="512pt" viewBox="0 0 512 512"
 preserveAspectRatio="xMidYMid meet">
<g transform="translate(0.000000,512.000000) scale(0.100000,-0.100000)"
fill="#000000" stroke="none">
<path d="M359 5102 c-121 -32 -224 -111 -293 -225 -70 -118 -66 3 -66 -2007 0
-2010 -4 -1889 66 -2007 69 -114 172 -193 293 -225 61 -16 198 -17 1891 -17
1693 0 1830 1 1891 17 121 32 224 111 293 225 70 118 66 -4 65 2014 0 1685 -1
1823 -17 1884 -32 121 -111 224 -225 293 -118 70 4 66 -2014 65 -1685 0 -1823
-1 -1884 -17z m1396 -2232 l0 -1985 -666 0 -666 0 -49 30 c-30 19 -60 49 -79
79 l-30 49 0 1826 0 1826 28 48 c30 51 87 95 139 107 18 5 323 7 678 7 l645
-2 0 -1985z m2371 1955 c30 -19 60 -49 79 -79 l30 -49 0 -1827 0 -1827 -30
-49 c-19 -30 -49 -60 -79 -79 l-49 -30 -1029 -3 -1028 -2 0 930 0 930 742 0
741 0 -120 -123 c-125 -128 -142 -155 -128 -217 9 -41 58 -88 100 -96 72 -13
86 -3 327 235 126 124 238 240 248 257 26 41 26 107 0 148 -10 17 -122 133
-248 257 -241 239 -255 248 -327 235 -42 -8 -91 -55 -100 -96 -14 -62 3 -89
128 -217 l120 -123 -741 0 -742 0 0 930 0 930 1028 -2 1029 -3 49 -30z"/>
<path d="M605 4581 c-92 -39 -99 -178 -12 -231 30 -19 53 -20 415 -20 416 0
417 0 461 56 15 19 21 41 21 75 0 42 -5 55 -34 87 l-34 37 -399 2 c-219 1
-407 -2 -418 -6z"/>
<path d="M625 4060 c-115 -35 -128 -200 -20 -246 51 -21 759 -21 810 0 93 39
101 185 12 233 -29 16 -69 18 -402 20 -203 1 -384 -2 -400 -7z"/>
<path d="M601 3523 c-96 -47 -94 -186 3 -233 40 -19 60 -20 407 -20 336 0 367
2 406 19 71 33 95 120 53 189 -37 60 -49 62 -462 62 -327 0 -377 -2 -407 -17z"/>
</g>
</svg>
