<?xml version="1.0" standalone="no"?>
<!DOCTYPE svg PUBLIC "-//W3C//DTD SVG 20010904//EN"
 "http://www.w3.org/TR/2001/REC-SVG-20010904/DTD/svg10.dtd">
<svg version="1.0" xmlns="http://www.w3.org/2000/svg"
 width="300.000000pt" height="300.000000pt" viewBox="0 0 300.000000 300.000000"
 preserveAspectRatio="xMidYMid meet">
<metadata>
Created by potrace 1.10, written by Peter Selinger 2001-2011
</metadata>
<g transform="translate(0.000000,300.000000) scale(0.100000,-0.100000)"
fill="#000000" stroke="none">
<path d="M785 2709 c-335 -26 -510 -143 -581 -389 -38 -131 -44 -240 -44 -815
0 -544 6 -681 36 -800 50 -194 175 -324 364 -378 125 -36 201 -40 833 -44 827
-6 982 5 1146 82 131 62 224 182 265 340 32 127 38 268 33 870 -3 551 -5 596
-24 682 -29 126 -74 215 -144 286 -103 102 -233 148 -474 167 -142 11 -1266
11 -1410 -1z m995 -1210 l0 -1031 -522 5 c-427 3 -535 7 -589 20 -204 48 -278
136 -311 367 -16 118 -16 1162 0 1280 24 168 80 273 171 319 117 60 203 68
784 70 l467 1 0 -1031z m551 1007 c202 -43 275 -129 310 -368 18 -117 18
-1159 0 -1276 -20 -135 -45 -203 -96 -260 -76 -85 -184 -117 -427 -128 l-148
-7 0 1033 0 1033 148 -7 c81 -3 177 -13 213 -20z"/>
<path d="M634 1825 c-34 -23 -49 -69 -34 -105 25 -61 15 -60 466 -60 l412 0
26 31 c33 39 33 79 0 118 l-26 31 -412 0 c-345 0 -415 -2 -432 -15z"/>
<path d="M746 1309 c-33 -39 -33 -79 0 -118 l26 -31 285 0 c184 0 291 4 305
11 11 6 26 26 34 45 12 29 12 39 0 68 -8 19 -23 39 -34 45 -14 7 -121 11 -305
11 l-285 0 -26 -31z"/>
</g>
</svg>
